<?xml version="1.0" encoding="iso-8859-1"?>
<!-- Generator: Adobe Illustrator 19.0.0, SVG Export Plug-In . SVG Version: 6.00 Build 0)  -->
<svg version="1.1" id="Layer_1" xmlns="http://www.w3.org/2000/svg" xmlns:xlink="http://www.w3.org/1999/xlink" x="0px" y="0px"
	 viewBox="0 0 512 512" style="enable-background:new 0 0 512 512;" xml:space="preserve">
<path style="fill:#C6C5CA;" d="M509.557,45.874c-0.421-8.828-7.482-15.888-16.309-16.309l-50.911-2.424
	c-4.833-0.227-9.522,1.586-12.937,5.001L406.613,54.93c-3.671,3.671-5.481,8.808-4.922,13.969l1.732,15.967l-12.151-2.957
	c-5.814-1.413-11.943,0.304-16.174,4.536l-18.909,18.909c-4.765,4.765-6.296,11.879-3.914,18.182l7.733,20.464l-22.22-7.106
	c-6.114-1.957-12.808-0.333-17.344,4.207l-17.589,17.589c-4.376,4.376-6.054,10.769-4.391,16.73l2.72,9.745l-8.022-2.88
	c-6.25-2.242-13.224-0.679-17.916,4.013l-26.213,26.212c-3.215,3.215-5.022,7.575-5.022,12.121s1.806,8.906,5.022,12.121
	l53.335,53.335c3.348,3.348,7.735,5.022,12.121,5.022c4.386,0,8.775-1.673,12.121-5.022l180.37-180.366
	c3.415-3.415,5.231-8.113,5.002-12.937L509.557,45.874z"/>
<path style="fill:#4C4C51;" d="M506.978,109.722c3.415-3.415,5.231-8.113,5.002-12.937l-2.424-50.911
	c-0.206-4.314-2.005-8.199-4.814-11.101L297.185,242.33l38.592,38.592L506.978,109.722z"/>
<path style="fill:#3E3E42;" d="M286.425,181.312c-4.139,0.229-8.141,1.945-11.181,4.986l-26.213,26.212
	c-3.215,3.215-5.022,7.575-5.022,12.121s1.806,8.906,5.022,12.121l53.335,53.335c3.348,3.348,7.735,5.022,12.121,5.022
	c4.386,0,8.775-1.673,12.121-5.022l34.296-34.296L286.425,181.312z"/>
<g>
	<path style="fill:#2D2E30;" d="M307.722,230.989L307.722,230.989c-5.198-5.198-5.198-13.624,0-18.821L452.954,66.936
		c5.198-5.198,13.624-5.198,18.821,0l0,0c5.198,5.198,5.198,13.624,0,18.821L326.543,230.989
		C321.347,236.187,312.92,236.187,307.722,230.989z"/>
	<path style="fill:#2D2E30;" d="M344.339,283.574l-59.989-59.989c-52.474-52.475-137.859-52.474-190.333,0l-79.506,79.506
		C5.153,312.448,0,324.889,0,338.122c0,13.233,5.153,25.674,14.51,35.029l97.217,97.218c9.358,9.357,21.797,14.509,35.029,14.509
		c13.233,0,25.674-5.153,35.029-14.51l162.553-162.55c3.215-3.215,5.022-7.575,5.022-12.121
		C349.361,291.15,347.555,286.789,344.339,283.574z M178.477,387.618l-13.942,13.942c-10.041,10.041-26.323,10.041-36.364,0
		l-44.849-44.849c-10.041-10.041-10.041-26.323,0-36.364l13.942-13.942c10.041-10.041,26.323-10.041,36.364,0l44.849,44.849
		C188.518,361.295,188.518,377.575,178.477,387.618z"/>
</g>
<path style="fill:#D9D8DB;" d="M200.07,327.048l-38.781-38.781c-15.986-15.986-15.986-41.904,0-57.89l0,0
	c15.985-15.985,41.904-15.985,57.89,0l38.781,38.781c15.986,15.986,15.986,41.904,0,57.89l0,0
	C241.973,343.034,216.055,343.034,200.07,327.048z"/>
<path style="fill:#8A8A91;" d="M257.959,327.048c15.985-15.986,15.985-41.904,0-57.89l-19.101-19.101l-57.89,57.89l19.101,19.101
	C216.055,343.034,241.973,343.034,257.959,327.048L257.959,327.048z"/>
<g>
</g>
<g>
</g>
<g>
</g>
<g>
</g>
<g>
</g>
<g>
</g>
<g>
</g>
<g>
</g>
<g>
</g>
<g>
</g>
<g>
</g>
<g>
</g>
<g>
</g>
<g>
</g>
<g>
</g>
</svg>
