<?xml version="1.0" encoding="iso-8859-1"?>
<!-- Generator: Adobe Illustrator 18.1.1, SVG Export Plug-In . SVG Version: 6.00 Build 0)  -->
<svg version="1.1" id="Capa_1" xmlns="http://www.w3.org/2000/svg" xmlns:xlink="http://www.w3.org/1999/xlink" x="0px" y="0px"
	 viewBox="0 0 89.478 89.478" style="enable-background:new 0 0 89.478 89.478;" xml:space="preserve">
<g>
	<path style="fill:#010002;" d="M75.159,0.002h-60.84c-0.118,0-0.236,0.032-0.358,0.036v5.519h-2.867V0.395
		C4.753,1.863,0,7.521,0,14.317v60.84c0,6.793,4.746,12.454,11.094,13.925v-5.161h2.867v5.519c0.118,0.004,0.236,0.036,0.361,0.036
		h60.84c7.906,0,14.315-6.41,14.315-14.315v-60.84C89.475,6.412,83.065,0.002,75.159,0.002z M13.961,76.793h-2.867v-7.122h2.867
		V76.793L13.961,76.793z M13.961,62.549h-2.867v-7.122h2.867V62.549L13.961,62.549z M13.961,48.298h-2.867v-7.122h2.867V48.298
		L13.961,48.298z M13.961,34.055h-2.867v-7.122h2.867V34.055L13.961,34.055z M13.961,19.807h-2.867v-7.122h2.867V19.807
		L13.961,19.807z M72.54,12.76l5.472,5.1L65.983,30.769l-5.472-5.1L72.54,12.76z M64.731,32.118l-25.263,27.11l-2.237-2.083
		l25.263-27.113L64.731,32.118z M59.259,27.011l2.244,2.086l-25.27,27.113l-2.237-2.086L59.259,27.011z M28.828,59.672l3.915-4.205
		l5.472,5.1L34.3,64.772L27.575,66.5L28.828,59.672z M78.38,73.397H25.217v-3.579H78.38V73.397z"/>
</g>
<g>
</g>
<g>
</g>
<g>
</g>
<g>
</g>
<g>
</g>
<g>
</g>
<g>
</g>
<g>
</g>
<g>
</g>
<g>
</g>
<g>
</g>
<g>
</g>
<g>
</g>
<g>
</g>
<g>
</g>
</svg>
